<svg width="123" height="81" viewBox="0 0 123 81" fill="none" xmlns="http://www.w3.org/2000/svg">
<path d="M42.2799 5.25553C43.2495 4.27251 43.2386 2.68964 42.2555 1.72008C41.2725 0.750529 39.6896 0.761446 38.7201 1.74447L42.2799 5.25553ZM4.5 40L2.72008 38.2445L0.988598 40L2.72008 41.7555L4.5 40ZM38.7201 78.2555L40.4756 80.0354L44.0355 76.5244L42.2799 74.7445L38.7201 78.2555ZM38.7201 1.74447L2.72008 38.2445L6.27992 41.7555L42.2799 5.25553L38.7201 1.74447ZM2.72008 41.7555L38.7201 78.2555L42.2799 74.7445L6.27992 38.2445L2.72008 41.7555Z" fill="#96FFFF"/>
<path d="M80.2443 75.2202C79.2614 76.1899 79.2506 77.7728 80.2202 78.7557C81.1899 79.7386 82.7728 79.7494 83.7557 78.7798L80.2443 75.2202ZM119 40.5L120.756 42.2798L122.56 40.5L120.756 38.7203L119 40.5ZM83.7557 2.22025L81.9759 0.464551L78.4645 4.02405L80.2443 5.77975L83.7557 2.22025ZM83.7557 78.7798L120.756 42.2798L117.244 38.7203L80.2443 75.2202L83.7557 78.7798ZM120.756 38.7203L83.7557 2.22025L80.2443 5.77975L117.244 42.2798L120.756 38.7203Z" fill="#96FFFF"/>
</svg>
