<svg width="72" height="72" viewBox="0 0 72 72" fill="none" xmlns="http://www.w3.org/2000/svg">
<path d="M45 18L45 57L9 63L9 24" stroke="black" stroke-width="6" stroke-linecap="round" stroke-linejoin="round"/>
<path d="M54 9C49.0294 9 45 13.0294 45 18C45 22.9706 49.0294 27 54 27C58.9706 27 63 22.9706 63 18C63 13.0294 58.9706 9 54 9Z" stroke="black" stroke-width="6" stroke-linecap="round" stroke-linejoin="round"/>
<path d="M18 15C13.0294 15 9 19.0294 9 24C9 28.9706 13.0294 33 18 33C22.9706 33 27 28.9706 27 24C27 19.0294 22.9706 15 18 15Z" stroke="black" stroke-width="6" stroke-linecap="round" stroke-linejoin="round"/>
</svg>
