<svg width="72" height="72" viewBox="0 0 72 72" fill="none" xmlns="http://www.w3.org/2000/svg">
<path d="M62.9999 38.37C62.528 43.4766 60.6115 48.3432 57.4747 52.4004C54.3378 56.4575 50.1104 59.5374 45.2871 61.2796C40.4637 63.0219 35.2439 63.3544 30.2385 62.2383C25.233 61.1222 20.6489 58.6036 17.0226 54.9773C13.3963 51.351 10.8778 46.7669 9.76167 41.7615C8.64557 36.756 8.9781 31.5363 10.7203 26.7129C12.4626 21.8895 15.5424 17.6621 19.5996 14.5253C23.6567 11.3884 28.5233 9.47192 33.6299 9C30.6402 13.0448 29.2015 18.0283 29.5755 23.0442C29.9496 28.0601 32.1115 32.7752 35.6682 36.3318C39.2248 39.8884 43.9398 42.0504 48.9557 42.4244C53.9716 42.7985 58.9551 41.3598 62.9999 38.37Z" stroke="#1D1D1D" stroke-width="6" stroke-linecap="round" stroke-linejoin="round"/>
</svg>
